# xmcd CD database file
#
# Track frame offsets:
#	150
#	11732
#	20932
#	31920
#	41735
#	53375
#	64122
#	73427
#	84565
#	94250
#	104960
#	116870
#	124677
#	137375
#	148192
#
# Disc length: 2120 seconds
#
# Revision: 1
# Processed by: cddbd v1.4PL0 Copyright (c) Steve Scherf et al.
# Submitted via: CDex 1.51
#
DISCID=e208460f
DTITLE=Elvis Presley - Rockin' in the country
DYEAR=2000
DGENRE=Country
TTITLE0=I forget to remember to forget
TTITLE1=I'm gonna sir right down and cry
TTITLE2=Paralyzed
TTITLE3=Let me
TTITLE4=Have i told you lately that i love you
TTITLE5=When my blue moon turns to gold again
TTITLE6=Judy
TTITLE7=Your cheatin' heart
TTITLE8=Just call me lonesome
TTITLE9=I'm comin' home
TTITLE10=It keeps right on a-hurtin'
TTITLE11=Little cabin on the hill
TTITLE12=It ain't no big thing (but it's grovning)
TTITLE13=The fool
TTITLE14=From a Jack to a king
EXTD=YEAR: 2000
EXTT0=
EXTT1=
EXTT2=
EXTT3=
EXTT4=
EXTT5=
EXTT6=
EXTT7=
EXTT8=
EXTT9=
EXTT10=
EXTT11=
EXTT12=
EXTT13=
EXTT14=
PLAYORDER=
